<svg width="634" height="675" viewBox="0 0 634 675" fill="none" xmlns="http://www.w3.org/2000/svg">
<g clip-path="url(#clip0_40_70)">
<rect width="634" height="675" rx="40" fill="white"/>
<g clip-path="url(#clip1_40_70)">
<path d="M384.086 110.063C384.086 110.063 283.95 106.696 210.982 149.126C138.014 191.556 138 270.392 138 296.793V494.485C138 532.27 168.654 562.889 206.441 562.889H445.041C482.301 562.889 503.872 537.141 507.13 494.485C509.917 457.994 517.738 355.563 480.165 315.845C442.592 276.127 344.069 284.867 318.094 224.166C292.12 163.463 384.086 110.063 384.086 110.063ZM265.088 187.302C265.088 187.302 242.621 247.482 284.886 286.965C327.15 326.447 408.028 322.057 430.033 352.956C452.038 383.856 446.885 442.156 445.609 469.365C444.333 496.574 429.171 510.912 411.902 510.912H232.838C209.861 510.911 191.256 494.257 191.256 471.281V294.699C191.255 207.499 265.088 187.302 265.088 187.302Z" fill="black"/>
</g>
</g>
<defs>
<clipPath id="clip0_40_70">
<rect width="634" height="675" rx="40" fill="white"/>
</clipPath>
<clipPath id="clip1_40_70">
<rect width="637" height="637" fill="white" transform="translate(0 17)"/>
</clipPath>
</defs>
</svg>
